<mxfile host="app.diagrams.net" agent="Mozilla/5.0 (Windows NT 10.0; Win64; x64) AppleWebKit/537.36 (KHTML, like Gecko) Chrome/135.0.0.0 Safari/537.36" version="26.2.14">
  <diagram name="Page-1" id="ZyLC8S5dxKdKQNmnkdge">
    <mxGraphModel dx="358" dy="675" grid="1" gridSize="10" guides="1" tooltips="1" connect="1" arrows="1" fold="1" page="1" pageScale="1" pageWidth="850" pageHeight="1100" math="0" shadow="0">
      <root>
        <mxCell id="0" />
        <mxCell id="1" parent="0" />
        <mxCell id="m8tSha3gMKwPOlAXHFQ--1" value="PasanganKRS" style="swimlane;fontStyle=0;childLayout=stackLayout;horizontal=1;startSize=30;horizontalStack=0;resizeParent=1;resizeParentMax=0;resizeLast=0;collapsible=1;marginBottom=0;whiteSpace=wrap;html=1;" vertex="1" parent="1">
          <mxGeometry x="113" y="170" width="302" height="160" as="geometry" />
        </mxCell>
        <mxCell id="m8tSha3gMKwPOlAXHFQ--18" value="krs1: krs&lt;br&gt;&lt;div&gt;krs2: krs&lt;/div&gt;&lt;div&gt;&lt;br&gt;&lt;/div&gt;" style="text;html=1;align=left;verticalAlign=middle;whiteSpace=wrap;rounded=0;" vertex="1" parent="m8tSha3gMKwPOlAXHFQ--1">
          <mxGeometry y="30" width="302" height="50" as="geometry" />
        </mxCell>
        <mxCell id="m8tSha3gMKwPOlAXHFQ--22" value="krs(nim:String, nama: String, prodi: String, kelas: String)&lt;div&gt;void tampilData()&lt;/div&gt;" style="text;html=1;align=left;verticalAlign=middle;whiteSpace=wrap;rounded=0;" vertex="1" parent="m8tSha3gMKwPOlAXHFQ--1">
          <mxGeometry y="80" width="302" height="80" as="geometry" />
        </mxCell>
        <mxCell id="m8tSha3gMKwPOlAXHFQ--25" value="" style="endArrow=none;html=1;rounded=0;" edge="1" parent="m8tSha3gMKwPOlAXHFQ--1">
          <mxGeometry width="50" height="50" relative="1" as="geometry">
            <mxPoint x="-3" y="70" as="sourcePoint" />
            <mxPoint x="307" y="70" as="targetPoint" />
            <Array as="points">
              <mxPoint x="87" y="70" />
            </Array>
          </mxGeometry>
        </mxCell>
      </root>
    </mxGraphModel>
  </diagram>
</mxfile>
